/* XPM */
static char *c1da7835d37f4a7dd067870aca8d141bGMbvBo2DsBoxTTyO[] = {
/* columns rows colors chars-per-pixel */
"32 32 122 2 ",
"   c None",
".  c #1F1417",
"X  c #1E1519",
"o  c #1D151C",
"O  c #1E161D",
"+  c #21110D",
"@  c #22120E",
"#  c #23130E",
"$  c #24130E",
"%  c #24140F",
"&  c #25140F",
"*  c #231411",
"=  c #241512",
"-  c #251715",
";  c #2E1D15",
":  c #352117",
">  c #30211B",
",  c #3B251A",
"<  c #1B1927",
"1  c #1A1A2B",
"2  c #191B30",
"3  c #181C31",
"4  c #181C32",
"5  c #27232E",
"6  c #3E2E2B",
"7  c #202032",
"8  c #292837",
"9  c #242A3D",
"0  c #312A33",
"q  c #3A3136",
"w  c #3B3336",
"e  c #3D3435",
"r  c #3E383D",
"t  c #442C1F",
"y  c #412D23",
"u  c #493327",
"i  c #4D3424",
"p  c #503625",
"a  c #533826",
"s  c #563B28",
"d  c #543D2F",
"f  c #583C29",
"g  c #42393C",
"h  c #483B39",
"j  c #584032",
"k  c #584132",
"l  c #55443E",
"z  c #64462F",
"x  c #6D4C34",
"c  c #755338",
"v  c #2B314A",
"b  c #2D324A",
"n  c #2F3548",
"m  c #2E354B",
"M  c #2E344E",
"N  c #493F41",
"B  c #3B4258",
"V  c #39415A",
"C  c #4E4141",
"Z  c #45424F",
"A  c #564744",
"S  c #574A4A",
"D  c #584B4B",
"F  c #5E4D48",
"G  c #5E4E49",
"H  c #584C4D",
"J  c #464351",
"K  c #464452",
"L  c #4A4651",
"P  c #474759",
"I  c #705D52",
"U  c #705D53",
"Y  c #7B6658",
"T  c #7C6759",
"R  c #434A61",
"E  c #434A62",
"W  c #444E6A",
"Q  c #46506B",
"!  c #49526B",
"~  c #5E5B69",
"^  c #5E5D6C",
"/  c #525B75",
"(  c #535B75",
")  c #585F77",
"_  c #55607D",
"`  c #56607D",
"'  c #5B637F",
"]  c #62677E",
"[  c #86705E",
"{  c #87705F",
"}  c #556281",
"|  c #576483",
" . c #5B6786",
".. c #5B6889",
"X. c #5D6A8B",
"o. c #5E6B8C",
"O. c #606B89",
"+. c #616C8A",
"@. c #646E8A",
"#. c #646E8B",
"$. c #656F8C",
"%. c #6C7285",
"&. c #737380",
"*. c #667394",
"=. c #677598",
"-. c #707891",
";. c #707992",
":. c #7481A0",
">. c #89909D",
",. c #959295",
"<. c #979496",
"1. c #8C92A2",
"2. c #8C93A3",
"3. c #8D95A3",
"4. c #9098A8",
"5. c #919CB2",
"6. c #9EA2AD",
"7. c #9EA3AE",
"8. c #A4ADBD",
"9. c #AEB1B7",
"0. c #AFB2B8",
"q. c #B6BEC8",
/* pixels */
"                                                                ",
"                                                                ",
"                                                                ",
"                                                                ",
"            # # # # + # + + + + # # # + + + + + # #             ",
"          # : 6 Z P Z 6 , , , , , , , , 6 J P K 6 : #           ",
"          $ t F -.:.-.F s s f s a s s s F -.:.;.F t #           ",
"          * p Y 6.8.6.Y x x x x x x x x Y 6.8.6.Y p &           ",
"          & f { 0.q.9.{ c c c c c c c c { 9.q.0.{ f &           ",
"          & f { 0.q.9.{ c c c c c c c c { 9.q.0.{ f &           ",
"          & f { 9.q.9.{ c c c c c c c c { 9.q.0.{ f *           ",
"          * f { 9.q.9.{ c c c c c c c c { 9.q.0.{ f &           ",
"          & f { 0.q.9.{ c c c c c c c c { 9.q.9.{ f &           ",
"          $ i U 3.5.1.I z z z x z z z z U 1.5.1.U i $           ",
"          & y S $.=.@.S d k k k k k k d S #.=.$.D y &           ",
"          * L ] *.=.*.] ] <.<.<.<.<.<.] ] *.=.*.] L *           ",
"          & Z `  ... ._ %.4.3.>.>.3.4.%.`  . . .` Z *           ",
"          + > w E Q P w r ! B m n P ! r w B Q R e > #           ",
"        . # ; w / } / h l _ V 9 9 V _ l l / _ / e ; # .         ",
"      2 X # ; g o.=.o.A S *.Q m v Q *.H A +.=.+.g ; # X 4       ",
"      4 o # ; g o.=.@.A H =.X.| | X.*.H A +.=.+.g ; # o 4       ",
"      4 o # ; g @.=.@.A l ~ ~ ^ ^ ^ ^ l A +.=.+.g ; # o 4       ",
"      4 X # ; g o.=.@.A p p p p p p p p A $.=.+.g ; # o 4       ",
"      4 < O - q O.=.@.A p p p p p p p p A +.=.+.q - O < 4       ",
"          2 X 0 ` X.' C u u u u u u u u A | o.` 8 - 1           ",
"          4 1 7 v M b 8 5 5 5 5 5 5 5 7 8 b M v 7 1 4           ",
"                  4 4 4 4 4 4 4 4 4 4 4 2 2 4                   ",
"                  4 4 4 4 4 4 4 4 4 4 4 2 2 4                   ",
"                                                                ",
"                                                                ",
"                                                                ",
"                                                                "
};
