/* XPM */
static char *_a5fdb4259c24cf5a3e4e029e6ccdc960sovOFCamRlFEDjr[] = {
/* columns rows colors chars-per-pixel */
"32 32 67 1 ",
"  c None",
". c #24150D",
"X c #271D0D",
"o c #271E0D",
"O c #37220C",
"+ c #3E260B",
"@ c #3F260B",
"# c #40380C",
"$ c #403838",
"% c #48400B",
"& c #4A420B",
"* c #484017",
"= c #484040",
"- c #4A4242",
"; c #9A6005",
": c #B67102",
"> c #B87702",
", c #A37732",
"< c #B4A005",
"1 c #B4A032",
"2 c #D78600",
"3 c #DE8A00",
"4 c #DA8D0E",
"5 c #E58F00",
"6 c #E79000",
"7 c #EC9300",
"8 c #EE9900",
"9 c #F29700",
"0 c #F89B00",
"q c #FB9D00",
"w c #FF9F00",
"e c #FFA106",
"r c #FFAC00",
"t c #FFA60E",
"y c #FFB700",
"u c #FFAC23",
"i c #FFB02E",
"p c #D8C602",
"a c #D8C60E",
"s c #FFCB00",
"d c #FFCF00",
"f c #FFDD00",
"g c #FFE006",
"h c #FFEB00",
"j c #FFDC23",
"k c #FEB741",
"l c #E5B76B",
"z c #FFFE41",
"x c #FFC76B",
"c c #FFCE7E",
"v c #FFFF7E",
"b c #B4A084",
"n c #FFCF80",
"m c #FFD288",
"M c #FFD38A",
"N c #FFDC98",
"B c #FFFD98",
"V c #FFFB9D",
"C c #F6D9A9",
"Z c #FFEFA9",
"A c #FCF0DD",
"S c #FFF3DF",
"D c #FFF9DD",
"F c #FFF5E4",
"G c #FDF9F3",
"H c #FFFBF3",
"J c #FFFFFB",
/* pixels */
"                                ",
"                                ",
"                                ",
"                                ",
"                                ",
"                                ",
"                                ",
"                                ",
"                                ",
"              ooXX              ",
"            ##phha-$            ",
"           &<frwecSb-           ",
"          @<swwsmFnn,O          ",
"          &fwwdBGlMi5@          ",
"          &fwdVJkCue2@          ",
"          #gwNJuA4ww5#          ",
"          %fmGzDq2ww3+          ",
"          *vFxZtq2ww3+          ",
"          -SnMj875ww3+          ",
"          $bniw55ww9;O          ",
"           -1frww03;+           ",
"            #&>22:+O            ",
"              ....              ",
"                                ",
"                                ",
"                                ",
"                                ",
"                                ",
"                                ",
"                                ",
"                                ",
"                                "
};
