/* XPM */
static char *e01e0c123d91416fab2c1c2fb266bb0cgHRSgpslv9VRV6fi[] = {
/* columns rows colors chars-per-pixel */
"32 32 18 1 ",
"  c #523826",
". c #573B29",
"X c #573D2A",
"o c #593D2A",
"O c #58452F",
"+ c #60432D",
"@ c #654630",
"# c #6C4C33",
"$ c #6E4E34",
"% c #735137",
"& c #755338",
"* c #755539",
"= c #735A3D",
"- c #6B6645",
"; c #6F6948",
": c #649165",
"> c #63986B",
", c #63996B",
/* pixels */
",,,,,,,,,,,,,,,,,,,,,,,,,,,,,,,,",
",,,,,,,,,,,,,,,,,,,,,,,,,,,,,,,,",
",,,,,,,,,,,,,,,,,,,,,,,,,,,,,,,,",
",,,:,,,,,,,,,,,,,,,,,,,,OX,,,,,,",
"ooooooo+,,+oo+,,,,,=&$+.  .ooooo",
"ooooooo+,,+oo+-;;;;*&$+ooooooooo",
"#######$%%$##$%&&&&&&%$#########",
"&&&&&&&&&&&&&&&&&&&&&&&&&&&&&&&&",
"&&&&&&&&&&&&&&&&&&&&&&&&&&&&&&&&",
"&&&&&&&&&&&&&&&&&&&&&&&&&&&&&&&&",
"&&&&&&&&&&&&&&&&&&&&&&&&&&&&&&&&",
"&&&&&&&&&%$$%&&&&&&&&&&&&&&&&&&&",
"&&&&&&&&&$++$&&&&&&&&&&&&&&&&&&&",
"#########@..@##$%%$##$%&&&&&&%$#",
"ooooooooo.  .oo+$$+oo+$&&&&&&$+o",
"o.  .oooooooooo+$$+oo+$&&&&&&$+o",
"#@..@##########$%%$##$%&&&&&&%$#",
"&$++$&&&&&&&&&&&&&&&&&&&&&&&&&&&",
"&%$$%&&&&&&&&&&&&&&&&&&&&&&&&&&&",
"&&&&&&&&&&&&&&&&&&&&&&&&&&&&&&&&",
"&&&&&&&&&&&&&&&&&&&&&&&&&&&&&&&&",
"&&&&&&&&&&&&&&&&&&&&&&&&&&&&&&&&",
"&&&&&&&&&&&&&&&&&&&&&&&&&&&&&&&&",
"#####$%&&&&%$###################",
"ooooo+$&&&&$+ooooooooooooooooooo",
"ooooo+$&&&&$+oooooooooo.  .ooooo",
"#####$%&&&&%$##########@..@#####",
"&&&&&&&&&&&&&&&&&&&&&&&$++$&&&&&",
"&&&&&&&&&&&&&&&&&&&&&&&%$$%&&&&&",
"&&&&&&&&&&&&&&&&&&&&&&&&&&&&&&&&",
"&&&&&&&&&&&&&&&&&&&&&&&&&&&&&&&&",
"&&&&&&&&&&&&&&&&&&&&&&&&&&&&&&&&"
};
