/* XPM */
static char *_f09b86dafdd4ea2ad8e9af7e5c7b5abetW7h0QEDZfIo38D[] = {
/* columns rows colors chars-per-pixel */
"32 32 12 1 ",
"  c None",
". c black",
"X c #1B0905",
"o c #3E2210",
"O c #10162E",
"+ c #56371E",
"@ c #AD7C5D",
"# c #17418B",
"$ c #2865B6",
"% c #797F98",
"& c #A5AAB6",
"* c #C2AE90",
/* pixels */
"                                ",
"                                ",
"                                ",
"                                ",
"                                ",
"                                ",
"          .... ..               ",
"          .++o.+...             ",
"          ..++o+o++.            ",
"         .o+++++++++.           ",
"        .o+++++++++++.          ",
"        .o++o+++oo+++.          ",
"        .oooo+++o@@o+o.         ",
"        .o+oo++o@@@@oo.         ",
"        .o++@o+@X**X.o.         ",
"        .oo+@@o*X**X..          ",
"         .oo@@******.           ",
"          .oo@@****@.           ",
"           .oo@@@@@.            ",
"           .oo+%%%o.            ",
"           .o++%%&o.            ",
"          .**++%&&o@.           ",
"          .**++$$$o@.           ",
"          O.#$$#$$..O           ",
"         OO.o+..o+.OOO          ",
"         OOOOOOOOOOOOO          ",
"          OOOOOOOOOOO           ",
"                                ",
"                                ",
"                                ",
"                                ",
"                                "
};
