/* XPM */
static char *_c23e1fcfb9b41e7a2f8713f42bb400aZJpyJ1yndLro33jy[] = {
/* columns rows colors chars-per-pixel */
"32 32 212 2 ",
"   c None",
".  c #1B0904",
"X  c #1B0905",
"o  c #1B0906",
"O  c #1B0908",
"+  c #1A0B08",
"@  c #1A0A09",
"#  c #1A0A0A",
"$  c #190C0C",
"%  c #1F1109",
"&  c #1D1208",
"*  c #1D1509",
"=  c #1F100F",
"-  c #141F09",
";  c #1B1809",
":  c #1E1A0A",
">  c #1F1A0B",
",  c #1F1D0B",
"<  c #170E15",
"1  c #1C1B10",
"2  c #13121F",
"3  c #14121F",
"4  c #1A141D",
"5  c #21110F",
"6  c #2B160D",
"7  c #2B160E",
"8  c #201E0B",
"9  c #251310",
"0  c #2D1A12",
"q  c #321C11",
"w  c #361E13",
"e  c #132209",
"r  c #10310D",
"t  c #0F3E11",
"y  c #183511",
"u  c #1F3E15",
"i  c #20210C",
"p  c #20220D",
"a  c #24220D",
"s  c #24230E",
"d  c #21280F",
"f  c #222110",
"g  c #3B2316",
"h  c #3B251A",
"j  c #223D16",
"k  c #233E16",
"l  c #2F3F1A",
"z  c #3D311A",
"x  c #3E311B",
"c  c #353C1B",
"v  c #3E3D1E",
"b  c #131322",
"n  c #131325",
"m  c #121426",
"M  c #12152D",
"N  c #10162D",
"B  c #10162E",
"V  c #402718",
"C  c #422819",
"Z  c #422919",
"A  c #452B1B",
"S  c #422A1D",
"D  c #4C301F",
"F  c #4D321F",
"G  c #48351F",
"H  c #4A341F",
"J  c #4C3120",
"K  c #4F3320",
"L  c #453F21",
"P  c #503320",
"I  c #503420",
"U  c #513421",
"Y  c #533622",
"T  c #543723",
"R  c #533624",
"E  c #553823",
"W  c #563824",
"Q  c #563924",
"!  c #583A25",
"~  c #593B26",
"^  c #5A3B26",
"/  c #5A3C26",
"(  c #5B3C27",
")  c #5D3E28",
"_  c #094310",
"`  c #0A4311",
"'  c #094410",
"]  c #0C4411",
"[  c #0F4B14",
"{  c #0F4C14",
"}  c #0F4D14",
"|  c #124112",
" . c #184014",
".. c #114E15",
"X. c #145217",
"o. c #155217",
"O. c #155618",
"+. c #195919",
"@. c #1C5E1C",
"#. c #224317",
"$. c #224E1A",
"%. c #2A4B19",
"&. c #2D4F1E",
"*. c #22501A",
"=. c #22541B",
"-. c #29531C",
";. c #2A551C",
":. c #2A571D",
">. c #2A591D",
",. c #2A581F",
"<. c #2B5A1E",
"1. c #1D601C",
"2. c #1F621D",
"3. c #20631E",
"4. c #22621E",
"5. c #22661F",
"6. c #22681F",
"7. c #3D4A22",
"8. c #3F4A22",
"9. c #335220",
"0. c #236820",
"q. c #256B21",
"w. c #266D22",
"e. c #2E6B23",
"r. c #286C21",
"t. c #3A6624",
"y. c #3E6A26",
"u. c #2C7324",
"i. c #2D7726",
"p. c #2F7626",
"a. c #2F7827",
"s. c #317A27",
"d. c #307B28",
"f. c #317D28",
"g. c #327E29",
"h. c #337E29",
"j. c #357E29",
"k. c #347F29",
"l. c #3D7E2B",
"z. c #484323",
"x. c #4D4725",
"c. c #4F4626",
"v. c #5A4429",
"b. c #5F4C2C",
"n. c #5C4F2C",
"m. c #604029",
"M. c #62422A",
"N. c #67462D",
"B. c #68472D",
"V. c #68472E",
"C. c #634F2F",
"Z. c #69482E",
"A. c #69492F",
"S. c #6A492F",
"D. c #6B4A2F",
"F. c #6A4E30",
"G. c #6E4C31",
"H. c #6F4C31",
"J. c #714E32",
"K. c #724F33",
"L. c #734F33",
"P. c #675030",
"I. c #6E5132",
"U. c #715133",
"Y. c #725234",
"T. c #735234",
"R. c #745034",
"E. c #755134",
"W. c #755135",
"Q. c #745234",
"!. c #755235",
"~. c #765235",
"^. c #427E2C",
"/. c #34802A",
"(. c #35802A",
"). c #37802A",
"_. c #36812A",
"`. c #37822B",
"'. c #38842B",
"]. c #39852C",
"[. c #3A862C",
"{. c #3B862C",
"}. c #3B872D",
"|. c #3F8A2E",
" X c #3E8B2E",
".X c #408D2F",
"XX c #418D30",
"oX c #428F30",
"OX c #449131",
"+X c #459231",
"@X c #459232",
"#X c #469332",
"$X c #469432",
"%X c #479432",
"&X c #479433",
"*X c #479533",
"=X c #489533",
"-X c #489633",
";X c #4A9734",
":X c #4E9634",
">X c #4A9834",
",X c #4B9935",
"<X c #4C9A35",
"1X c #4E9C36",
"2X c #4F9E37",
"3X c #509E37",
"4X c #509F37",
"5X c #519F37",
"6X c #51A037",
"7X c #51A038",
"8X c #52A038",
"9X c #52A138",
/* pixels */
"                                                                ",
"                    o         O O         % <.>.O   O           ",
"          : , :   %.f.;.s 1 + h./.7 b 8 s f.#X9X#Xi /.d         ",
"        * e.$X^.;.>X*X].4Xl.t.].6X#X^./.9Xh.9X9X6X=X9X/.O       ",
"        i #X9X9X9X9X9X9X9X9X9X9X9X9X9X1X%X9X9X9X8X8X=Xi .       ",
"      e h.>X9X9X9X9X9X9X9X9X9X9X9X9X9X9X9X9X9X9X8X8X8Xh.e       ",
"      ;.9X9X9X9X9X9X9X9X9X9X9X9X9X9X9X9X9X9X9X9X8X9X#Xh.r 3     ",
"    ; .X9X9X9X9X9X9X9X9X9X9X9X9X9X9X9X9X9X9X9X9X9X9X8X8Xh.:     ",
"  o { $X9X9X9X9X9X9X9X9X9X9X9X9X9X9X9X9X9X9X9X9X9X9X9X9X9XX.o   ",
"  $ G =.#X9X9X9X9X9X9X9X9X9X9X9X9X9X9X9X9X9X9X9X9X9X9X9X=X..+   ",
"  $ K j /.9X9X9X9X9X9X9X9X9X9X9X9X9X9X9X9X9X9X9X9X9X9X6Xq.' $   ",
"    %  .5.#X9X9X9X9X9X9X9X9X9X9X9X9X9X9X9X9X9X9X9X9X<Xf.| %     ",
"  + z 2.=X4X9X9X9X9X9X9X9X9X9X9X9X9X9X9X9X9X9X9X9X9X9X1X3.z +   ",
"  + { '.9X9X9X9X9X9X9X9X9X9X9X9X9X9X9X9X9X9X9X9X9X9X9X9X$X{ O   ",
"  $ ..$X9X9X9X9X9X9X9X9X9X9X9X9X9X9X9X9X9X9X9X9X9X9X9X9X$X{ $   ",
"  9 { .X9X9X9X9X9X9X9X9X9X9X9X9X9X9X9X9X9X9X9X9X9X9X9X9XXX..9   ",
"  V c r.}.$X9X9X9X9X9X9X9X9X9X9X9X9X9X9X9X9X9X9X9X9X=X}.q.c V   ",
"b A Y.&./.9X9X9X9X9X9X9X9X9X9X9X9X9X9X9X9X9X9X9X9X9X9X].-.!.A b ",
"3 / C.6.-X9X9X9X9X9X9X9X9X9X9X9X9X9X9X9X9X9X9X9X9X9X9X X5.C.( 3 ",
"3 R n.6.9X9X9X9X9X9X9X9X9X9X9X9X9X9X9X9X9X9X9X9X9X9X9X+.#.S.R 3 ",
"N $ G $.q.>X9X9X9X9X9X9X9X9X9X9X9X9X9X9X9X9X9X9X9X9X9X9Xp.j + B ",
"  $ P k /.4X9X9X9X9X9X9X9X9X9X6X9X9X9X1X9X9X4X9XXX1X9X4X6.C.Z b ",
"  $ B.z.1.+X4Xh.9X6X9Xd.'.6X+X[.9X9X$X5.9X1Xu.9X].@.XXf.*.F./ 2 ",
"N $ !.) J 2.s.2.9X6X/.y t a.X.X.$X1XO.[ #Xa.' f.2.' _ _ S.K / 2 ",
"N $ L.W L.c.z.z.@.1.1.v D 8.v.D.l 1.9.U.;.] n.8.c.!.~.~.~.~.C 3 ",
"N $ P B.!.~.!.I.U.K.U.B.K.!.~.~.Q.U.Q.!.!.Y.!.~.!.!.~.R ~.~.^ 3 ",
"  $ ^ !.~.!.!.!.~.~.!.!.Q.~.~.~.!.L.K.!.!.!.~.~.~.~.~.R D.!.^ 3 ",
"  $ W !.~.!.!.!.~.~.!.!.Q.~.~.~.!.H.S.~.!.!.~.!.~.~.~.L.) !./   ",
"    7 !.~.~.~.K.!.!.~.K.!.~.~.!.!.K.m.Q.~.~.~.B.~.~.!.!.^ B.w   ",
"    4 / ~.~.!.M.!.!.~.A S.~.~.!.~.R q ^ !.!.~.U ~.!.!.^ P 7 o   ",
"      < 9 / ^ 0 $ ( = $ g ( ^ D $ $ 3 + $ ^ D $ h ) S $ +       ",
"        N 2 3 m N 3 N N 3 3 b b           2 2 N n b n           "
};
